<svg width="764" height="103" viewBox="0 0 764 103" fill="none" xmlns="http://www.w3.org/2000/svg">
<g filter="url(#filter0_d_2218_10381)">
<path d="M51.7096 94.1201C42.3496 94.1201 34.0729 92.1267 26.8796 88.1401C19.7729 84.0667 14.1829 78.5201 10.1096 71.5001C6.03628 64.3934 3.99961 56.2467 3.99961 47.0601C3.99961 37.8734 6.03628 29.7701 10.1096 22.7501C14.1829 15.6434 19.7729 10.0967 26.8796 6.11006C34.0729 2.03672 42.3496 5.6982e-05 51.7096 5.6982e-05C57.5163 5.6982e-05 62.7596 0.866723 67.4396 2.60005C72.2063 4.24672 76.3663 6.54339 79.9196 9.49005C83.4729 12.4367 86.4196 15.8167 88.7596 19.6301L71.4696 30.0301C70.1696 27.9501 68.4363 26.0867 66.2696 24.4401C64.1896 22.7934 61.8929 21.5367 59.3796 20.6701C56.8663 19.7167 54.3096 19.2401 51.7096 19.2401C46.5963 19.2401 42.0463 20.4101 38.0596 22.7501C34.1596 25.0901 31.0829 28.3834 28.8296 32.6301C26.5763 36.7901 25.4496 41.6001 25.4496 47.0601C25.4496 52.5201 26.5329 57.3734 28.6996 61.6201C30.8663 65.7801 33.9863 69.0734 38.0596 71.5001C42.1329 73.9267 46.8563 75.1401 52.2296 75.1401C56.3029 75.1401 59.8996 74.3601 63.0196 72.8001C66.1396 71.2401 68.6096 69.0734 70.4296 66.3001C72.2496 63.5267 73.1596 60.2767 73.1596 56.5501L93.0496 53.1701C93.0496 62.0101 91.2729 69.5067 87.7196 75.6601C84.1663 81.7267 79.3129 86.3201 73.1596 89.4401C67.0063 92.5601 59.8563 94.1201 51.7096 94.1201ZM52.3596 58.7601V42.6401H93.0496V54.9901L81.3496 58.7601H52.3596ZM163.526 92.5601L129.466 1.56005H150.266L185.626 92.5601H163.526ZM92.5459 92.5601L127.906 1.56005H148.706L114.646 92.5601H92.5459ZM109.186 75.2701V56.8101H169.116V75.2701H109.186ZM195.561 92.5601V1.56005H218.571L242.751 37.4401L267.061 1.56005H290.071V92.5601H269.141V34.0601L242.881 72.5401L216.491 34.0601V92.5601H195.561ZM307.787 92.5601V1.56005H367.067V20.8001H328.717V37.4401H360.827V56.0301H328.717V73.3201H367.717V92.5601H307.787ZM457.455 94.1201C448.095 94.1201 439.818 92.1267 432.625 88.1401C425.432 84.0667 419.798 78.5201 415.725 71.5001C411.652 64.3934 409.615 56.2901 409.615 47.1901C409.615 38.0034 411.652 29.9001 415.725 22.8801C419.798 15.7734 425.388 10.2267 432.495 6.24005C439.688 2.16672 447.922 0.130055 457.195 0.130055C466.468 0.130055 474.658 2.16672 481.765 6.24005C488.958 10.2267 494.592 15.7734 498.665 22.8801C502.738 29.9001 504.775 38.0034 504.775 47.1901C504.775 56.2901 502.738 64.3934 498.665 71.5001C494.678 78.5201 489.132 84.0667 482.025 88.1401C474.918 92.1267 466.728 94.1201 457.455 94.1201ZM457.455 74.8801C462.568 74.8801 467.075 73.7101 470.975 71.3701C474.875 69.0301 477.908 65.7801 480.075 61.6201C482.242 57.3734 483.325 52.5634 483.325 47.1901C483.325 41.7301 482.198 36.9201 479.945 32.7601C477.692 28.5134 474.615 25.2201 470.715 22.8801C466.815 20.4534 462.308 19.2401 457.195 19.2401C452.082 19.2401 447.575 20.4534 443.675 22.8801C439.775 25.2201 436.698 28.5134 434.445 32.7601C432.192 36.9201 431.065 41.7301 431.065 47.1901C431.065 52.5634 432.192 57.3734 434.445 61.6201C436.698 65.7801 439.818 69.0301 443.805 71.3701C447.792 73.7101 452.342 74.8801 457.455 74.8801ZM544.5 92.5601L577.65 1.56005H600.27L564.78 92.5601H544.5ZM542.16 92.5601L506.54 1.56005H529.03L562.44 92.5601H542.16ZM610.063 92.5601V1.56005H669.343V20.8001H630.993V37.4401H663.103V56.0301H630.993V73.3201H669.993V92.5601H610.063ZM686.361 92.5601V1.56005H722.111C728.698 1.56005 734.548 2.86005 739.661 5.46006C744.775 7.97339 748.761 11.5267 751.621 16.1201C754.568 20.6267 756.041 25.8267 756.041 31.7201C756.041 37.6134 754.568 42.8567 751.621 47.4501C748.675 52.0434 744.601 55.6401 739.401 58.2401C734.288 60.7534 728.395 62.0101 721.721 62.0101H707.291V92.5601H686.361ZM735.761 92.5601L715.221 56.4201L730.951 44.8501L759.681 92.5601H735.761ZM707.291 42.7701H721.461C723.888 42.7701 726.055 42.2934 727.961 41.3401C729.868 40.3867 731.341 39.0867 732.381 37.4401C733.508 35.7067 734.071 33.8001 734.071 31.7201C734.071 28.5134 732.858 25.8701 730.431 23.7901C728.091 21.7101 724.971 20.6701 721.071 20.6701H707.291V42.7701Z" fill="#FD5B4F"/>
</g>
<defs>
<filter id="filter0_d_2218_10381" x="0" y="0" width="763.682" height="102.12" filterUnits="userSpaceOnUse" color-interpolation-filters="sRGB">
<feFlood flood-opacity="0" result="BackgroundImageFix"/>
<feColorMatrix in="SourceAlpha" type="matrix" values="0 0 0 0 0 0 0 0 0 0 0 0 0 0 0 0 0 0 127 0" result="hardAlpha"/>
<feOffset dy="4"/>
<feGaussianBlur stdDeviation="2"/>
<feComposite in2="hardAlpha" operator="out"/>
<feColorMatrix type="matrix" values="0 0 0 0 0 0 0 0 0 0 0 0 0 0 0 0 0 0 0.25 0"/>
<feBlend mode="normal" in2="BackgroundImageFix" result="effect1_dropShadow_2218_10381"/>
<feBlend mode="normal" in="SourceGraphic" in2="effect1_dropShadow_2218_10381" result="shape"/>
</filter>
</defs>
</svg>
